/vscmnt/brussel_pixiu_data/_data_brussel/112/vsc11236/PredSimResults/SUBJ10opt3D/expIG/worker_08.mot
version=1
nRows=10
nColumns=50
inDegrees=yes
endheader
                time	         pelvis_tilt	         pelvis_list	     pelvis_rotation	           pelvis_tx	           pelvis_ty	           pelvis_tz	       hip_flexion_r	     hip_adduction_r	      hip_rotation_r	        knee_angle_r	       ankle_angle_r	         mtp_angle_r	       hip_flexion_l	     hip_adduction_l	      hip_rotation_l	        knee_angle_l	       ankle_angle_l	         mtp_angle_l	    lumbar_extension	      lumbar_bending	     lumbar_rotation	 ercspn_r/activation	 intobl_r/activation	 extobl_r/activation	    abd_r/activation	    add_r/activation	hamstrings_r/activation	bifemsh_r/activation	glut_max_r/activation	iliopsoas_r/activation	rect_fem_r/activation	  vasti_r/activation	gastroc_r/activation	 soleus_r/activation	tib_ant_r/activation	 ercspn_l/activation	 intobl_l/activation	 extobl_l/activation	    abd_l/activation	    add_l/activation	hamstrings_l/activation	bifemsh_l/activation	glut_max_l/activation	iliopsoas_l/activation	rect_fem_l/activation	  vasti_l/activation	gastroc_l/activation	 soleus_l/activation	tib_ant_l/activation	
          1.60219903	         -4.60312341	          1.03403163	         -7.64941895	          2.08285874	          0.81844092	          0.01198690	        -17.40212875	         -1.09263500	          0.36316259	         -5.87743636	          6.72050029	         28.79850974	         31.97920045	         -1.68211381	         -6.38679764	         -7.85811314	          3.56920072	          0.27771602	         -7.00583892	          0.05633859	          6.86921880	          0.10867083	          0.01000002	          0.01000005	          0.04530634	          0.01000032	          0.01399687	          0.22040492	          0.01216466	          0.37751333	          0.01000056	          0.01000006	          0.29953187	          0.24623202	          0.02304090	          0.11142738	          0.15825922	          0.01000017	          0.01000000	          0.17899538	          0.12974156	          0.25672475	          0.05690055	          0.09911700	          0.01000033	          0.01000002	          0.02067929	          0.01387719	          0.31201257	
          1.61288036	         -4.62539808	          1.02503283	         -7.74750986	          2.09907089	          0.81714578	          0.01192072	        -17.41698409	         -1.22677262	          0.08083328	         -7.77562721	          5.87245695	         30.47456423	         31.80893299	         -1.56737077	         -6.00117656	         -9.50737674	          3.17323872	          0.26159768	         -6.80970831	         -0.39401497	          7.13253575	          0.12692236	          0.01000002	          0.01000017	          0.03845967	          0.01933566	          0.02190030	          0.18709747	          0.01032647	          0.32046375	          0.01000011	          0.01000006	          0.25426679	          0.23139323	          0.01955897	          0.09458856	          0.13434320	          0.01000010	          0.02408199	          0.15194573	          0.11311612	          0.21792876	          0.10709248	          0.08413849	          0.01000005	          0.01000001	          0.01755426	          0.01178009	          0.39876592	
          1.62356169	         -4.63917861	          1.02405535	         -7.79972108	          2.11544242	          0.81613926	          0.01173402	        -17.26376740	         -1.37378946	         -0.23710689	         -9.98082348	          4.89558773	         32.00886570	         31.51945203	         -1.44346877	         -5.67940182	        -10.93386286	          2.63728641	          0.25073808	         -6.60707803	         -0.84958526	          7.36392848	          0.14831127	          0.01000001	          0.01000006	          0.03264767	          0.01641378	          0.01859323	          0.15882342	          0.01000010	          0.27203549	          0.01000033	          0.01000007	          0.21584213	          0.21301297	          0.01660324	          0.11226096	          0.11404134	          0.01000009	          0.07996062	          0.16734168	          0.09602211	          0.18499553	          0.12896226	          0.07142353	          0.01000007	          0.01000002	          0.01490148	          0.01000002	          0.46481484	
          1.63424301	         -4.64415744	          1.01649405	         -7.80783436	          2.13178539	          0.81554044	          0.01143186	        -16.88420474	         -1.51965734	         -0.59136051	        -12.56617413	          3.79629247	         33.26529996	         31.22114856	         -1.31644419	         -5.43967818	        -12.35189481	          2.12311617	          0.23360836	         -6.41918799	         -1.29349684	          7.56092184	          0.18406159	          0.01000002	          0.01000006	          0.02771397	          0.02068684	          0.02235902	          0.13482213	          0.01000013	          0.23092566	          0.01000017	          0.01000005	          0.18322418	          0.18853902	          0.01409417	          0.11763526	          0.09680748	          0.01000009	          0.11965180	          0.22450295	          0.08151136	          0.15703914	          0.14303550	          0.06063005	          0.01000009	          0.01000011	          0.01264959	          0.01000006	          0.49633863	
          1.64492434	         -4.64003702	          1.00517961	         -7.77655577	          2.14799354	          0.81542423	          0.01102434	        -16.23851078	         -1.67110181	         -0.98831055	        -15.57789303	          2.59863605	         34.05790885	         30.96649153	         -1.18735116	         -5.26530239	        -13.87686783	          1.79755660	          0.21652444	         -6.25205861	         -1.72637840	          7.72446394	          0.21042593	          0.01000002	          0.01000005	          0.02352585	          0.08009191	          0.01899481	          0.11444791	          0.01000004	          0.19602832	          0.01000012	          0.01000002	          0.15553543	          0.16004712	          0.01196427	          0.12169765	          0.08217798	          0.01000008	          0.14892801	          0.26782147	          0.06991883	          0.13330750	          0.15279274	          0.05146767	          0.01000010	          0.03478886	          0.01073802	          0.01000008	          0.50005335	
          1.65560567	         -4.62835672	          0.98588148	         -7.70602319	          2.16399596	          0.81587159	          0.01053614	        -15.29050216	         -1.82687124	         -1.44811414	        -19.05492984	          1.30636963	         34.19592509	         30.71715806	         -1.06059698	         -5.14704832	        -15.43255334	          1.70216474	          0.19909902	         -6.10775793	         -2.14304021	          7.85250327	          0.22388465	          0.01000002	          0.01000006	          0.01997064	          0.15036592	          0.01956291	          0.09715265	          0.01000002	          0.16640465	          0.01000010	          0.01000001	          0.13203100	          0.13586089	          0.01015624	          0.11877812	          0.06975929	          0.01000008	          0.16427354	          0.29543879	          0.06572316	          0.11316218	          0.14676877	          0.04368990	          0.01000009	          0.06975806	          0.01000009	          0.01000006	          0.48434056	
          1.66628699	         -4.61151207	          0.95493643	         -7.59596752	          2.17975177	          0.81691921	          0.00999411	        -14.02304510	         -1.99120456	         -1.97535740	        -22.97188410	         -0.20575506	         33.67767580	         30.39674837	         -0.93223025	         -5.05885338	        -16.87633366	          1.85320979	          0.18522023	         -5.98637884	         -2.54016555	          7.94289372	          0.22362393	          0.01000003	          0.01000006	          0.01695269	          0.21456922	          0.02047081	          0.08247106	          0.01000002	          0.14125768	          0.01000009	          0.01000001	          0.11207854	          0.11532966	          0.01000001	          0.10888293	          0.05921731	          0.01000009	          0.16810714	          0.30519423	          0.06418612	          0.09606121	          0.13462909	          0.03708751	          0.01000008	          0.09564021	          0.01000008	          0.01000004	          0.45216578	
          1.67696832	         -4.59188437	          0.90914844	         -7.44644812	          2.19522754	          0.81852940	          0.00941805	        -12.44552764	         -2.17079949	         -2.55837973	        -27.24334631	         -2.06449804	         32.52587503	         29.95060675	         -0.79786239	         -4.96575076	        -18.10083958	          2.23858890	          0.18631648	         -5.88998435	         -2.91503789	          7.99465974	          0.21919383	          0.01000002	          0.01000007	          0.01439081	          0.27110583	          0.02053078	          0.07000823	          0.01000001	          0.11991091	          0.01000008	          0.01000000	          0.09514129	          0.09790110	          0.01000001	          0.09242873	          0.05026842	          0.01000009	          0.16950448	          0.29437414	          0.06634104	          0.08154454	          0.11428448	          0.03148287	          0.01000007	          0.12650550	          0.01000004	          0.01000002	          0.39596197	
          1.68764965	         -4.57203981	          0.84424990	         -7.25738211	          2.21038239	          0.82064507	          0.00882139	        -10.58985955	         -2.36847819	         -3.16605501	        -31.73106342	         -4.38569836	         30.78016827	         29.34284717	         -0.65567154	         -4.83295542	        -19.02637082	          2.81997291	          0.22848831	         -5.82352537	         -3.26278705	          8.00764079	          0.21870934	          0.01896596	          0.01000006	          0.01221608	          0.25727054	          0.04090267	          0.05942913	          0.01000006	          0.10179006	          0.01000006	          0.01000000	          0.08076359	          0.08310634	          0.01000007	          0.07846098	          0.04267189	          0.01000014	          0.16931295	          0.26269606	          0.07142564	          0.06922162	          0.09701392	          0.02672520	          0.01000007	          0.13815977	          0.01000025	          0.01000011	          0.33612460	
          1.69833097	         -4.55351683	          0.76044803	         -7.03577087	          2.22517306	          0.82316831	          0.00821103	         -8.51122513	         -2.58380084	         -3.74418807	        -36.31437518	         -6.86563395	         28.11219567	         28.57987143	         -0.50960797	         -4.65325204	        -19.64421344	          3.51349397	          0.32325389	         -5.79233871	         -3.57913991	          7.98418427	          0.23071651	          0.05839103	          0.01000017	          0.01037010	          0.21839198	          0.03472219	          0.05045200	          0.01178036	          0.08640763	          0.01000010	          0.01000000	          0.06855865	          0.07054735	          0.13382303	          0.06660401	          0.03622334	          0.01000011	          0.17010422	          0.22299781	          0.07362896	          0.05876093	          0.08235376	          0.02268650	          0.01000005	          0.15740556	          0.01000006	          0.01000003	          0.29240982	
